<mxfile host="app.diagrams.net" modified="2022-05-14T03:51:01.096Z" agent="5.0 (Windows)" etag="l_DsFqJAsM9gizCwdhWi" version="18.0.3" type="github">
  <diagram id="R2lEEEUBdFMjLlhIrx00" name="Page-1">
    <mxGraphModel dx="1634" dy="1340" grid="1" gridSize="10" guides="1" tooltips="1" connect="1" arrows="1" fold="1" page="1" pageScale="1" pageWidth="850" pageHeight="1100" math="0" shadow="0" extFonts="Permanent Marker^https://fonts.googleapis.com/css?family=Permanent+Marker">
      <root>
        <mxCell id="0" />
        <mxCell id="1" parent="0" />
        <mxCell id="V68mExFcOHDCHj4z8eXi-1" value="student" style="rounded=0;whiteSpace=wrap;html=1;" vertex="1" parent="1">
          <mxGeometry x="270" y="400" width="120" height="60" as="geometry" />
        </mxCell>
        <mxCell id="V68mExFcOHDCHj4z8eXi-2" value="address" style="ellipse;whiteSpace=wrap;html=1;" vertex="1" parent="1">
          <mxGeometry x="220" y="260" width="120" height="80" as="geometry" />
        </mxCell>
        <mxCell id="V68mExFcOHDCHj4z8eXi-3" value="city" style="ellipse;whiteSpace=wrap;html=1;" vertex="1" parent="1">
          <mxGeometry x="310" y="180" width="40" height="40" as="geometry" />
        </mxCell>
        <mxCell id="V68mExFcOHDCHj4z8eXi-4" value="enroll_date" style="ellipse;whiteSpace=wrap;html=1;" vertex="1" parent="1">
          <mxGeometry x="370" y="260" width="120" height="80" as="geometry" />
        </mxCell>
        <mxCell id="V68mExFcOHDCHj4z8eXi-5" value="name" style="ellipse;whiteSpace=wrap;html=1;" vertex="1" parent="1">
          <mxGeometry x="90" y="260" width="120" height="80" as="geometry" />
        </mxCell>
        <mxCell id="V68mExFcOHDCHj4z8eXi-6" value="&lt;div&gt;first&lt;/div&gt;" style="ellipse;whiteSpace=wrap;html=1;" vertex="1" parent="1">
          <mxGeometry x="90" y="180" width="40" height="40" as="geometry" />
        </mxCell>
        <mxCell id="V68mExFcOHDCHj4z8eXi-7" value="&lt;div&gt;last&lt;/div&gt;" style="ellipse;whiteSpace=wrap;html=1;" vertex="1" parent="1">
          <mxGeometry x="160" y="180" width="40" height="40" as="geometry" />
        </mxCell>
        <mxCell id="V68mExFcOHDCHj4z8eXi-8" value="state" style="ellipse;whiteSpace=wrap;html=1;" vertex="1" parent="1">
          <mxGeometry x="280" y="140" width="40" height="40" as="geometry" />
        </mxCell>
        <mxCell id="V68mExFcOHDCHj4z8eXi-9" value="zip" style="ellipse;whiteSpace=wrap;html=1;" vertex="1" parent="1">
          <mxGeometry x="240" y="175" width="40" height="40" as="geometry" />
        </mxCell>
        <mxCell id="V68mExFcOHDCHj4z8eXi-10" value="" style="endArrow=none;html=1;rounded=0;" edge="1" parent="1" source="V68mExFcOHDCHj4z8eXi-5">
          <mxGeometry width="50" height="50" relative="1" as="geometry">
            <mxPoint x="130" y="265" as="sourcePoint" />
            <mxPoint x="180" y="215" as="targetPoint" />
          </mxGeometry>
        </mxCell>
        <mxCell id="V68mExFcOHDCHj4z8eXi-11" value="" style="endArrow=none;html=1;rounded=0;" edge="1" parent="1" source="V68mExFcOHDCHj4z8eXi-5">
          <mxGeometry width="50" height="50" relative="1" as="geometry">
            <mxPoint x="89.99891839866333" y="261.04093647950526" as="sourcePoint" />
            <mxPoint x="106.4" y="215" as="targetPoint" />
          </mxGeometry>
        </mxCell>
        <mxCell id="V68mExFcOHDCHj4z8eXi-12" value="" style="endArrow=none;html=1;rounded=0;entryX=0;entryY=1;entryDx=0;entryDy=0;exitX=0.68;exitY=0.905;exitDx=0;exitDy=0;exitPerimeter=0;" edge="1" parent="1" source="V68mExFcOHDCHj4z8eXi-9" target="V68mExFcOHDCHj4z8eXi-3">
          <mxGeometry width="50" height="50" relative="1" as="geometry">
            <mxPoint x="270" y="240" as="sourcePoint" />
            <mxPoint x="296.4" y="220" as="targetPoint" />
            <Array as="points">
              <mxPoint x="290" y="270" />
            </Array>
          </mxGeometry>
        </mxCell>
        <mxCell id="V68mExFcOHDCHj4z8eXi-13" value="" style="endArrow=none;html=1;rounded=0;" edge="1" parent="1" target="V68mExFcOHDCHj4z8eXi-8">
          <mxGeometry width="50" height="50" relative="1" as="geometry">
            <mxPoint x="290" y="270" as="sourcePoint" />
            <mxPoint x="270" y="230" as="targetPoint" />
          </mxGeometry>
        </mxCell>
        <mxCell id="V68mExFcOHDCHj4z8eXi-14" value="under grad" style="ellipse;whiteSpace=wrap;html=1;" vertex="1" parent="1">
          <mxGeometry x="520" y="260" width="120" height="80" as="geometry" />
        </mxCell>
        <mxCell id="V68mExFcOHDCHj4z8eXi-15" value="" style="endArrow=none;html=1;rounded=0;" edge="1" parent="1" source="V68mExFcOHDCHj4z8eXi-1">
          <mxGeometry width="50" height="50" relative="1" as="geometry">
            <mxPoint x="375" y="390" as="sourcePoint" />
            <mxPoint x="425" y="340" as="targetPoint" />
          </mxGeometry>
        </mxCell>
        <mxCell id="V68mExFcOHDCHj4z8eXi-16" value="" style="endArrow=none;html=1;rounded=0;" edge="1" parent="1" target="V68mExFcOHDCHj4z8eXi-14">
          <mxGeometry width="50" height="50" relative="1" as="geometry">
            <mxPoint x="371.66666666666663" y="410" as="sourcePoint" />
            <mxPoint x="435" y="350" as="targetPoint" />
          </mxGeometry>
        </mxCell>
        <mxCell id="V68mExFcOHDCHj4z8eXi-17" value="" style="endArrow=none;html=1;rounded=0;" edge="1" parent="1" source="V68mExFcOHDCHj4z8eXi-5" target="V68mExFcOHDCHj4z8eXi-1">
          <mxGeometry width="50" height="50" relative="1" as="geometry">
            <mxPoint x="69.29666666666662" y="445.08" as="sourcePoint" />
            <mxPoint x="230.69903343619592" y="360.0019615545719" as="targetPoint" />
          </mxGeometry>
        </mxCell>
        <mxCell id="V68mExFcOHDCHj4z8eXi-18" value="" style="endArrow=none;html=1;rounded=0;" edge="1" parent="1" target="V68mExFcOHDCHj4z8eXi-1">
          <mxGeometry width="50" height="50" relative="1" as="geometry">
            <mxPoint x="259.9961519726951" y="329.5211524800902" as="sourcePoint" />
            <mxPoint x="357.97153846153833" y="400" as="targetPoint" />
          </mxGeometry>
        </mxCell>
        <mxCell id="V68mExFcOHDCHj4z8eXi-19" value="cousre" style="rounded=0;whiteSpace=wrap;html=1;" vertex="1" parent="1">
          <mxGeometry x="202" y="748" width="120" height="60" as="geometry" />
        </mxCell>
        <mxCell id="V68mExFcOHDCHj4z8eXi-20" value="title" style="ellipse;whiteSpace=wrap;html=1;" vertex="1" parent="1">
          <mxGeometry x="152" y="608" width="120" height="80" as="geometry" />
        </mxCell>
        <mxCell id="V68mExFcOHDCHj4z8eXi-22" value="&lt;u&gt;Coureid&lt;/u&gt;" style="ellipse;whiteSpace=wrap;html=1;" vertex="1" parent="1">
          <mxGeometry x="298" y="608" width="120" height="80" as="geometry" />
        </mxCell>
        <mxCell id="V68mExFcOHDCHj4z8eXi-23" value="instrutor" style="ellipse;whiteSpace=wrap;html=1;" vertex="1" parent="1">
          <mxGeometry x="22" y="608" width="120" height="80" as="geometry" />
        </mxCell>
        <mxCell id="V68mExFcOHDCHj4z8eXi-30" value="" style="endArrow=none;html=1;rounded=0;entryX=0;entryY=1;entryDx=0;entryDy=0;exitX=0.68;exitY=0.905;exitDx=0;exitDy=0;exitPerimeter=0;" edge="1" parent="1" source="V68mExFcOHDCHj4z8eXi-27">
          <mxGeometry width="50" height="50" relative="1" as="geometry">
            <mxPoint x="335" y="640" as="sourcePoint" />
            <mxPoint x="380.85786437627803" y="614.1421356237217" as="targetPoint" />
            <Array as="points">
              <mxPoint x="355" y="670" />
            </Array>
          </mxGeometry>
        </mxCell>
        <mxCell id="V68mExFcOHDCHj4z8eXi-33" value="" style="endArrow=none;html=1;rounded=0;" edge="1" parent="1" source="V68mExFcOHDCHj4z8eXi-19">
          <mxGeometry width="50" height="50" relative="1" as="geometry">
            <mxPoint x="307" y="738" as="sourcePoint" />
            <mxPoint x="357" y="688" as="targetPoint" />
          </mxGeometry>
        </mxCell>
        <mxCell id="V68mExFcOHDCHj4z8eXi-35" value="" style="endArrow=none;html=1;rounded=0;" edge="1" parent="1" source="V68mExFcOHDCHj4z8eXi-23" target="V68mExFcOHDCHj4z8eXi-19">
          <mxGeometry width="50" height="50" relative="1" as="geometry">
            <mxPoint x="1.2966666666666242" y="793.0799999999999" as="sourcePoint" />
            <mxPoint x="162.69903343619592" y="708.0019615545718" as="targetPoint" />
          </mxGeometry>
        </mxCell>
        <mxCell id="V68mExFcOHDCHj4z8eXi-36" value="" style="endArrow=none;html=1;rounded=0;" edge="1" parent="1" target="V68mExFcOHDCHj4z8eXi-19">
          <mxGeometry width="50" height="50" relative="1" as="geometry">
            <mxPoint x="191.9961519726951" y="677.5211524800902" as="sourcePoint" />
            <mxPoint x="289.97153846153833" y="748" as="targetPoint" />
          </mxGeometry>
        </mxCell>
        <mxCell id="V68mExFcOHDCHj4z8eXi-44" value="instructors" style="rounded=0;whiteSpace=wrap;html=1;" vertex="1" parent="1">
          <mxGeometry x="605" y="640" width="120" height="60" as="geometry" />
        </mxCell>
        <mxCell id="V68mExFcOHDCHj4z8eXi-45" value="office" style="ellipse;whiteSpace=wrap;html=1;" vertex="1" parent="1">
          <mxGeometry x="555" y="500" width="120" height="80" as="geometry" />
        </mxCell>
        <mxCell id="V68mExFcOHDCHj4z8eXi-46" value="rank" style="ellipse;whiteSpace=wrap;html=1;" vertex="1" parent="1">
          <mxGeometry x="701" y="500" width="120" height="80" as="geometry" />
        </mxCell>
        <mxCell id="V68mExFcOHDCHj4z8eXi-47" value="&lt;u&gt;instrutor&lt;/u&gt;" style="ellipse;whiteSpace=wrap;html=1;" vertex="1" parent="1">
          <mxGeometry x="425" y="500" width="120" height="80" as="geometry" />
        </mxCell>
        <mxCell id="V68mExFcOHDCHj4z8eXi-48" value="" style="endArrow=none;html=1;rounded=0;" edge="1" parent="1" source="V68mExFcOHDCHj4z8eXi-44">
          <mxGeometry width="50" height="50" relative="1" as="geometry">
            <mxPoint x="710" y="630" as="sourcePoint" />
            <mxPoint x="760" y="580" as="targetPoint" />
          </mxGeometry>
        </mxCell>
        <mxCell id="V68mExFcOHDCHj4z8eXi-49" value="" style="endArrow=none;html=1;rounded=0;" edge="1" parent="1" source="V68mExFcOHDCHj4z8eXi-47" target="V68mExFcOHDCHj4z8eXi-44">
          <mxGeometry width="50" height="50" relative="1" as="geometry">
            <mxPoint x="404.2966666666666" y="685.0799999999999" as="sourcePoint" />
            <mxPoint x="565.6990334361959" y="600.0019615545718" as="targetPoint" />
          </mxGeometry>
        </mxCell>
        <mxCell id="V68mExFcOHDCHj4z8eXi-50" value="" style="endArrow=none;html=1;rounded=0;" edge="1" parent="1" target="V68mExFcOHDCHj4z8eXi-44">
          <mxGeometry width="50" height="50" relative="1" as="geometry">
            <mxPoint x="594.9961519726951" y="569.5211524800902" as="sourcePoint" />
            <mxPoint x="692.9715384615383" y="640" as="targetPoint" />
          </mxGeometry>
        </mxCell>
        <mxCell id="V68mExFcOHDCHj4z8eXi-51" value="take" style="rounded=0;whiteSpace=wrap;html=1;" vertex="1" parent="1">
          <mxGeometry x="530" y="990" width="120" height="60" as="geometry" />
        </mxCell>
        <mxCell id="V68mExFcOHDCHj4z8eXi-52" value="Couseid" style="ellipse;whiteSpace=wrap;html=1;" vertex="1" parent="1">
          <mxGeometry x="480" y="850" width="120" height="80" as="geometry" />
        </mxCell>
        <mxCell id="V68mExFcOHDCHj4z8eXi-53" value="grade" style="ellipse;whiteSpace=wrap;html=1;" vertex="1" parent="1">
          <mxGeometry x="605" y="860" width="120" height="80" as="geometry" />
        </mxCell>
        <mxCell id="V68mExFcOHDCHj4z8eXi-54" value="&lt;u&gt;stundenttnum&lt;/u&gt;" style="ellipse;whiteSpace=wrap;html=1;" vertex="1" parent="1">
          <mxGeometry x="350" y="850" width="120" height="80" as="geometry" />
        </mxCell>
        <mxCell id="V68mExFcOHDCHj4z8eXi-55" value="" style="endArrow=none;html=1;rounded=0;" edge="1" parent="1" source="V68mExFcOHDCHj4z8eXi-51">
          <mxGeometry width="50" height="50" relative="1" as="geometry">
            <mxPoint x="635" y="980" as="sourcePoint" />
            <mxPoint x="685" y="930" as="targetPoint" />
          </mxGeometry>
        </mxCell>
        <mxCell id="V68mExFcOHDCHj4z8eXi-56" value="" style="endArrow=none;html=1;rounded=0;" edge="1" parent="1" source="V68mExFcOHDCHj4z8eXi-54" target="V68mExFcOHDCHj4z8eXi-51">
          <mxGeometry width="50" height="50" relative="1" as="geometry">
            <mxPoint x="329.2966666666666" y="1035.08" as="sourcePoint" />
            <mxPoint x="490.6990334361959" y="950.0019615545718" as="targetPoint" />
          </mxGeometry>
        </mxCell>
        <mxCell id="V68mExFcOHDCHj4z8eXi-57" value="" style="endArrow=none;html=1;rounded=0;" edge="1" parent="1" target="V68mExFcOHDCHj4z8eXi-51">
          <mxGeometry width="50" height="50" relative="1" as="geometry">
            <mxPoint x="519.9961519726951" y="919.5211524800902" as="sourcePoint" />
            <mxPoint x="617.9715384615383" y="990" as="targetPoint" />
          </mxGeometry>
        </mxCell>
        <mxCell id="V68mExFcOHDCHj4z8eXi-60" value="" style="shape=link;html=1;rounded=0;" edge="1" parent="1" source="V68mExFcOHDCHj4z8eXi-44" target="V68mExFcOHDCHj4z8eXi-1">
          <mxGeometry width="100" relative="1" as="geometry">
            <mxPoint x="600" y="660" as="sourcePoint" />
            <mxPoint x="580" y="490" as="targetPoint" />
            <Array as="points">
              <mxPoint x="370" y="570" />
            </Array>
          </mxGeometry>
        </mxCell>
        <mxCell id="V68mExFcOHDCHj4z8eXi-61" value="" style="shape=link;html=1;rounded=0;exitX=0.5;exitY=0;exitDx=0;exitDy=0;entryX=0.25;entryY=1;entryDx=0;entryDy=0;" edge="1" parent="1" source="V68mExFcOHDCHj4z8eXi-51" target="V68mExFcOHDCHj4z8eXi-44">
          <mxGeometry width="100" relative="1" as="geometry">
            <mxPoint x="810" y="870" as="sourcePoint" />
            <mxPoint x="580" y="690" as="targetPoint" />
          </mxGeometry>
        </mxCell>
        <mxCell id="V68mExFcOHDCHj4z8eXi-62" value="" style="shape=link;html=1;rounded=0;width=-8.571428571428571;exitX=0.5;exitY=1;exitDx=0;exitDy=0;" edge="1" parent="1" source="V68mExFcOHDCHj4z8eXi-19" target="V68mExFcOHDCHj4z8eXi-51">
          <mxGeometry width="100" relative="1" as="geometry">
            <mxPoint x="230" y="820" as="sourcePoint" />
            <mxPoint x="350" y="1040" as="targetPoint" />
            <Array as="points">
              <mxPoint x="260" y="1040" />
            </Array>
          </mxGeometry>
        </mxCell>
        <mxCell id="V68mExFcOHDCHj4z8eXi-63" value="" style="shape=link;html=1;rounded=0;width=6.363636363636363;" edge="1" parent="1" source="V68mExFcOHDCHj4z8eXi-1" target="V68mExFcOHDCHj4z8eXi-19">
          <mxGeometry width="100" relative="1" as="geometry">
            <mxPoint x="230" y="520" as="sourcePoint" />
            <mxPoint x="330" y="520" as="targetPoint" />
          </mxGeometry>
        </mxCell>
        <mxCell id="V68mExFcOHDCHj4z8eXi-64" value="&lt;u&gt;studentid&lt;/u&gt;" style="ellipse;whiteSpace=wrap;html=1;" vertex="1" parent="1">
          <mxGeometry x="650" y="260" width="120" height="80" as="geometry" />
        </mxCell>
        <mxCell id="V68mExFcOHDCHj4z8eXi-65" value="" style="endArrow=none;html=1;rounded=0;entryX=0.5;entryY=1;entryDx=0;entryDy=0;" edge="1" parent="1" target="V68mExFcOHDCHj4z8eXi-64">
          <mxGeometry relative="1" as="geometry">
            <mxPoint x="370" y="420" as="sourcePoint" />
            <mxPoint x="530" y="420" as="targetPoint" />
          </mxGeometry>
        </mxCell>
        <mxCell id="V68mExFcOHDCHj4z8eXi-67" value="crhour" style="ellipse;whiteSpace=wrap;html=1;" vertex="1" parent="1">
          <mxGeometry x="-10" y="760" width="120" height="80" as="geometry" />
        </mxCell>
        <mxCell id="V68mExFcOHDCHj4z8eXi-68" value="" style="endArrow=none;html=1;rounded=0;" edge="1" parent="1" source="V68mExFcOHDCHj4z8eXi-67" target="V68mExFcOHDCHj4z8eXi-19">
          <mxGeometry width="50" height="50" relative="1" as="geometry">
            <mxPoint x="125" y="790" as="sourcePoint" />
            <mxPoint x="175" y="740" as="targetPoint" />
          </mxGeometry>
        </mxCell>
      </root>
    </mxGraphModel>
  </diagram>
</mxfile>
